<mxfile host="app.diagrams.net" modified="2024-06-03T18:24:35.922Z" agent="Mozilla/5.0 (Windows NT 10.0; Win64; x64; rv:126.0) Gecko/20100101 Firefox/126.0" etag="iS011F-uKMDe4Taj_mnc" version="24.4.13" type="device">
  <diagram name="Página-1" id="KTidaV1jhQX9c0T9DL5h">
    <mxGraphModel dx="2193" dy="737" grid="1" gridSize="10" guides="1" tooltips="1" connect="1" arrows="1" fold="1" page="1" pageScale="1" pageWidth="827" pageHeight="1169" math="0" shadow="0">
      <root>
        <mxCell id="0" />
        <mxCell id="1" parent="0" />
        <mxCell id="eeUuwRDZIGfGQ-kLII9t-71" value="" style="html=1;whiteSpace=wrap;" parent="1" vertex="1">
          <mxGeometry x="80" y="90" width="690" height="935" as="geometry" />
        </mxCell>
        <mxCell id="eeUuwRDZIGfGQ-kLII9t-27" style="rounded=0;orthogonalLoop=1;jettySize=auto;html=1;exitX=0.5;exitY=0.5;exitDx=0;exitDy=0;exitPerimeter=0;" parent="1" source="CgV9NMkSsl-u7OdhYEXr-1" target="eeUuwRDZIGfGQ-kLII9t-1" edge="1">
          <mxGeometry relative="1" as="geometry" />
        </mxCell>
        <mxCell id="eeUuwRDZIGfGQ-kLII9t-28" style="rounded=0;orthogonalLoop=1;jettySize=auto;html=1;exitX=0.5;exitY=0.5;exitDx=0;exitDy=0;exitPerimeter=0;" parent="1" source="CgV9NMkSsl-u7OdhYEXr-1" target="eeUuwRDZIGfGQ-kLII9t-3" edge="1">
          <mxGeometry relative="1" as="geometry" />
        </mxCell>
        <mxCell id="eeUuwRDZIGfGQ-kLII9t-37" style="rounded=0;orthogonalLoop=1;jettySize=auto;html=1;exitX=0.5;exitY=0.5;exitDx=0;exitDy=0;exitPerimeter=0;" parent="1" source="CgV9NMkSsl-u7OdhYEXr-1" target="eeUuwRDZIGfGQ-kLII9t-32" edge="1">
          <mxGeometry relative="1" as="geometry" />
        </mxCell>
        <mxCell id="eeUuwRDZIGfGQ-kLII9t-49" style="rounded=0;orthogonalLoop=1;jettySize=auto;html=1;exitX=0.5;exitY=0.5;exitDx=0;exitDy=0;exitPerimeter=0;" parent="1" source="CgV9NMkSsl-u7OdhYEXr-1" target="eeUuwRDZIGfGQ-kLII9t-2" edge="1">
          <mxGeometry relative="1" as="geometry" />
        </mxCell>
        <mxCell id="CgV9NMkSsl-u7OdhYEXr-1" value="&lt;div&gt;Productor&amp;nbsp;&lt;/div&gt;&lt;div&gt;de residuos&lt;/div&gt;" style="shape=umlActor;verticalLabelPosition=bottom;verticalAlign=top;html=1;" parent="1" vertex="1">
          <mxGeometry x="-10" y="407.5" width="30" height="60" as="geometry" />
        </mxCell>
        <mxCell id="eeUuwRDZIGfGQ-kLII9t-29" style="rounded=0;orthogonalLoop=1;jettySize=auto;html=1;exitX=0.5;exitY=0.5;exitDx=0;exitDy=0;exitPerimeter=0;" parent="1" source="CgV9NMkSsl-u7OdhYEXr-3" target="eeUuwRDZIGfGQ-kLII9t-3" edge="1">
          <mxGeometry relative="1" as="geometry">
            <mxPoint x="153.96488769853113" y="706.245256794567" as="targetPoint" />
          </mxGeometry>
        </mxCell>
        <mxCell id="eeUuwRDZIGfGQ-kLII9t-30" style="rounded=0;orthogonalLoop=1;jettySize=auto;html=1;exitX=0.5;exitY=0.5;exitDx=0;exitDy=0;exitPerimeter=0;entryX=0;entryY=0.5;entryDx=0;entryDy=0;" parent="1" source="CgV9NMkSsl-u7OdhYEXr-3" target="eeUuwRDZIGfGQ-kLII9t-4" edge="1">
          <mxGeometry relative="1" as="geometry" />
        </mxCell>
        <mxCell id="eeUuwRDZIGfGQ-kLII9t-31" style="rounded=0;orthogonalLoop=1;jettySize=auto;html=1;exitX=0.5;exitY=0.5;exitDx=0;exitDy=0;exitPerimeter=0;" parent="1" source="CgV9NMkSsl-u7OdhYEXr-3" target="eeUuwRDZIGfGQ-kLII9t-6" edge="1">
          <mxGeometry relative="1" as="geometry" />
        </mxCell>
        <mxCell id="iLIdyShnenRzklDeNf6a-1" style="rounded=0;orthogonalLoop=1;jettySize=auto;html=1;exitX=0.5;exitY=0.5;exitDx=0;exitDy=0;exitPerimeter=0;entryX=0;entryY=0.5;entryDx=0;entryDy=0;" parent="1" source="CgV9NMkSsl-u7OdhYEXr-3" target="eeUuwRDZIGfGQ-kLII9t-7" edge="1">
          <mxGeometry relative="1" as="geometry" />
        </mxCell>
        <mxCell id="CgV9NMkSsl-u7OdhYEXr-3" value="&lt;div&gt;Xestor&lt;/div&gt;&lt;div&gt;de residuos&lt;br&gt;&lt;/div&gt;" style="shape=umlActor;verticalLabelPosition=bottom;verticalAlign=top;html=1;" parent="1" vertex="1">
          <mxGeometry x="-10" y="722.5" width="30" height="60" as="geometry" />
        </mxCell>
        <mxCell id="eeUuwRDZIGfGQ-kLII9t-25" style="rounded=0;orthogonalLoop=1;jettySize=auto;html=1;exitX=0.5;exitY=0.5;exitDx=0;exitDy=0;exitPerimeter=0;entryX=0;entryY=0.5;entryDx=0;entryDy=0;" parent="1" source="CgV9NMkSsl-u7OdhYEXr-4" target="CgV9NMkSsl-u7OdhYEXr-7" edge="1">
          <mxGeometry relative="1" as="geometry" />
        </mxCell>
        <mxCell id="eeUuwRDZIGfGQ-kLII9t-26" style="rounded=0;orthogonalLoop=1;jettySize=auto;html=1;exitX=0.5;exitY=0.5;exitDx=0;exitDy=0;exitPerimeter=0;" parent="1" source="CgV9NMkSsl-u7OdhYEXr-4" target="eeUuwRDZIGfGQ-kLII9t-11" edge="1">
          <mxGeometry relative="1" as="geometry" />
        </mxCell>
        <mxCell id="CgV9NMkSsl-u7OdhYEXr-4" value="&lt;div&gt;Usuario&lt;/div&gt;&lt;div&gt;non rexistrado&lt;br&gt;&lt;/div&gt;" style="shape=umlActor;verticalLabelPosition=bottom;verticalAlign=top;html=1;" parent="1" vertex="1">
          <mxGeometry x="-10" y="137.5" width="30" height="60" as="geometry" />
        </mxCell>
        <mxCell id="eeUuwRDZIGfGQ-kLII9t-51" style="rounded=0;orthogonalLoop=1;jettySize=auto;html=1;exitX=0.5;exitY=0.5;exitDx=0;exitDy=0;exitPerimeter=0;" parent="1" source="CgV9NMkSsl-u7OdhYEXr-5" target="eeUuwRDZIGfGQ-kLII9t-15" edge="1">
          <mxGeometry relative="1" as="geometry" />
        </mxCell>
        <mxCell id="eeUuwRDZIGfGQ-kLII9t-64" style="rounded=0;orthogonalLoop=1;jettySize=auto;html=1;exitX=0.5;exitY=0.5;exitDx=0;exitDy=0;exitPerimeter=0;entryX=1;entryY=0.5;entryDx=0;entryDy=0;" parent="1" source="CgV9NMkSsl-u7OdhYEXr-5" target="eeUuwRDZIGfGQ-kLII9t-12" edge="1">
          <mxGeometry relative="1" as="geometry" />
        </mxCell>
        <mxCell id="eeUuwRDZIGfGQ-kLII9t-65" style="rounded=0;orthogonalLoop=1;jettySize=auto;html=1;exitX=0.5;exitY=0.5;exitDx=0;exitDy=0;exitPerimeter=0;entryX=1;entryY=0.5;entryDx=0;entryDy=0;" parent="1" source="CgV9NMkSsl-u7OdhYEXr-5" target="eeUuwRDZIGfGQ-kLII9t-13" edge="1">
          <mxGeometry relative="1" as="geometry" />
        </mxCell>
        <mxCell id="eeUuwRDZIGfGQ-kLII9t-66" style="rounded=0;orthogonalLoop=1;jettySize=auto;html=1;exitX=0.5;exitY=0.5;exitDx=0;exitDy=0;exitPerimeter=0;entryX=1;entryY=0.5;entryDx=0;entryDy=0;" parent="1" source="CgV9NMkSsl-u7OdhYEXr-5" target="eeUuwRDZIGfGQ-kLII9t-14" edge="1">
          <mxGeometry relative="1" as="geometry" />
        </mxCell>
        <mxCell id="eeUuwRDZIGfGQ-kLII9t-68" style="rounded=0;orthogonalLoop=1;jettySize=auto;html=1;exitX=0.5;exitY=0.5;exitDx=0;exitDy=0;exitPerimeter=0;entryX=1;entryY=0.5;entryDx=0;entryDy=0;" parent="1" source="CgV9NMkSsl-u7OdhYEXr-5" target="eeUuwRDZIGfGQ-kLII9t-67" edge="1">
          <mxGeometry relative="1" as="geometry" />
        </mxCell>
        <mxCell id="CgV9NMkSsl-u7OdhYEXr-5" value="Administrador" style="shape=umlActor;verticalLabelPosition=bottom;verticalAlign=top;html=1;" parent="1" vertex="1">
          <mxGeometry x="880" y="431.25" width="30" height="60" as="geometry" />
        </mxCell>
        <mxCell id="CgV9NMkSsl-u7OdhYEXr-7" value="&lt;div&gt;Ver residuos&lt;/div&gt;&lt;div&gt;dispoñibles&lt;/div&gt;&lt;div&gt;c/ datos limitados&lt;br&gt;&lt;/div&gt;" style="ellipse;whiteSpace=wrap;html=1;" parent="1" vertex="1">
          <mxGeometry x="110" y="106.25" width="140" height="70" as="geometry" />
        </mxCell>
        <mxCell id="eeUuwRDZIGfGQ-kLII9t-1" value="&lt;div&gt;Crear rexistro&lt;/div&gt;&lt;div&gt;de residuo&lt;br&gt;s/xestor asignado&lt;br&gt;&lt;/div&gt;" style="ellipse;whiteSpace=wrap;html=1;" parent="1" vertex="1">
          <mxGeometry x="355" y="386.25" width="140" height="70" as="geometry" />
        </mxCell>
        <mxCell id="eeUuwRDZIGfGQ-kLII9t-2" value="&lt;div&gt;Aprobar reserva&lt;/div&gt;&lt;div&gt;dun residuo&lt;br&gt;&lt;/div&gt;" style="ellipse;whiteSpace=wrap;html=1;" parent="1" vertex="1">
          <mxGeometry x="110" y="466.25" width="140" height="70" as="geometry" />
        </mxCell>
        <mxCell id="eeUuwRDZIGfGQ-kLII9t-3" value="&lt;div&gt;Abrir incidencias&lt;/div&gt;" style="ellipse;whiteSpace=wrap;html=1;" parent="1" vertex="1">
          <mxGeometry x="110" y="586.25" width="140" height="70" as="geometry" />
        </mxCell>
        <mxCell id="eeUuwRDZIGfGQ-kLII9t-4" value="Solicitar reserva" style="ellipse;whiteSpace=wrap;html=1;" parent="1" vertex="1">
          <mxGeometry x="355" y="636.25" width="140" height="70" as="geometry" />
        </mxCell>
        <mxCell id="eeUuwRDZIGfGQ-kLII9t-5" value="&lt;div&gt;Crear unha&lt;/div&gt;&lt;div&gt;ruta de recollida&lt;br&gt;&lt;/div&gt;" style="ellipse;whiteSpace=wrap;html=1;" parent="1" vertex="1">
          <mxGeometry x="600" y="736.25" width="140" height="70" as="geometry" />
        </mxCell>
        <mxCell id="eeUuwRDZIGfGQ-kLII9t-6" value="&lt;div&gt;Engadir reserva&lt;/div&gt;&lt;div&gt;a ruta de recollida&lt;br&gt;&lt;/div&gt;" style="ellipse;whiteSpace=wrap;html=1;" parent="1" vertex="1">
          <mxGeometry x="355" y="736.25" width="140" height="70" as="geometry" />
        </mxCell>
        <mxCell id="eeUuwRDZIGfGQ-kLII9t-7" value="&lt;div&gt;Iniciar unha&lt;/div&gt;&lt;div&gt;ruta de recollida&lt;br&gt;&lt;/div&gt;" style="ellipse;whiteSpace=wrap;html=1;" parent="1" vertex="1">
          <mxGeometry x="355" y="876.25" width="140" height="70" as="geometry" />
        </mxCell>
        <mxCell id="eeUuwRDZIGfGQ-kLII9t-8" value="&lt;div&gt;Confirmar a recollida&lt;/div&gt;&lt;div&gt;dun residuo&lt;br&gt;&lt;/div&gt;" style="ellipse;whiteSpace=wrap;html=1;" parent="1" vertex="1">
          <mxGeometry x="600" y="936.25" width="140" height="70" as="geometry" />
        </mxCell>
        <mxCell id="eeUuwRDZIGfGQ-kLII9t-9" value="&lt;div&gt;Rexeitar a recollida&lt;/div&gt;&lt;div&gt;dun residuo&lt;br&gt;&lt;/div&gt;" style="ellipse;whiteSpace=wrap;html=1;" parent="1" vertex="1">
          <mxGeometry x="600" y="836.25" width="140" height="70" as="geometry" />
        </mxCell>
        <mxCell id="eeUuwRDZIGfGQ-kLII9t-10" value="Rexistrar usuarios" style="ellipse;whiteSpace=wrap;html=1;" parent="1" vertex="1">
          <mxGeometry x="355" y="216.25" width="140" height="70" as="geometry" />
        </mxCell>
        <mxCell id="eeUuwRDZIGfGQ-kLII9t-11" value="&lt;div&gt;Solicitar rexistro&lt;/div&gt;&lt;div&gt;na plataforma&lt;br&gt;&lt;/div&gt;" style="ellipse;whiteSpace=wrap;html=1;" parent="1" vertex="1">
          <mxGeometry x="110" y="216.25" width="140" height="70" as="geometry" />
        </mxCell>
        <mxCell id="eeUuwRDZIGfGQ-kLII9t-12" value="&lt;div&gt;Xestionar rexistros&lt;/div&gt;&lt;div&gt;de residuos&lt;br&gt;&lt;/div&gt;" style="ellipse;whiteSpace=wrap;html=1;" parent="1" vertex="1">
          <mxGeometry x="600" y="326.25" width="140" height="70" as="geometry" />
        </mxCell>
        <mxCell id="eeUuwRDZIGfGQ-kLII9t-13" value="&lt;div&gt;Xestionar categorías&lt;/div&gt;&lt;div&gt;de residuos&lt;br&gt;&lt;/div&gt;" style="ellipse;whiteSpace=wrap;html=1;" parent="1" vertex="1">
          <mxGeometry x="600" y="426.25" width="140" height="70" as="geometry" />
        </mxCell>
        <mxCell id="eeUuwRDZIGfGQ-kLII9t-14" value="&lt;div&gt;Xestionar&lt;/div&gt;&lt;div&gt;rutas de recollida&lt;br&gt;&lt;/div&gt;" style="ellipse;whiteSpace=wrap;html=1;" parent="1" vertex="1">
          <mxGeometry x="600" y="536.25" width="140" height="70" as="geometry" />
        </mxCell>
        <mxCell id="eeUuwRDZIGfGQ-kLII9t-15" value="&lt;div&gt;Xestionar&lt;/div&gt;&lt;div&gt;usuarios&lt;br&gt;&lt;/div&gt;" style="ellipse;whiteSpace=wrap;html=1;" parent="1" vertex="1">
          <mxGeometry x="600" y="216.25" width="140" height="70" as="geometry" />
        </mxCell>
        <mxCell id="eeUuwRDZIGfGQ-kLII9t-32" value="&lt;div&gt;Crear rexistro&lt;/div&gt;&lt;div&gt;de residuo&lt;br&gt;c/xestor asignado&lt;br&gt;&lt;/div&gt;" style="ellipse;whiteSpace=wrap;html=1;" parent="1" vertex="1">
          <mxGeometry x="110" y="336.25" width="140" height="70" as="geometry" />
        </mxCell>
        <mxCell id="eeUuwRDZIGfGQ-kLII9t-36" value="&amp;lt;&amp;lt; extend &amp;gt;&amp;gt;" style="endArrow=block;endSize=16;endFill=0;html=1;rounded=0;dashed=1;" parent="1" source="eeUuwRDZIGfGQ-kLII9t-1" target="eeUuwRDZIGfGQ-kLII9t-4" edge="1">
          <mxGeometry width="160" relative="1" as="geometry">
            <mxPoint x="375" y="426.25" as="sourcePoint" />
            <mxPoint x="535" y="426.25" as="targetPoint" />
          </mxGeometry>
        </mxCell>
        <mxCell id="eeUuwRDZIGfGQ-kLII9t-39" value="&amp;lt;&amp;lt; include &amp;gt;&amp;gt;" style="endArrow=block;endSize=16;endFill=0;html=1;rounded=0;dashed=1;" parent="1" source="eeUuwRDZIGfGQ-kLII9t-7" target="eeUuwRDZIGfGQ-kLII9t-8" edge="1">
          <mxGeometry width="160" relative="1" as="geometry">
            <mxPoint x="245" y="877.29" as="sourcePoint" />
            <mxPoint x="405" y="877.29" as="targetPoint" />
          </mxGeometry>
        </mxCell>
        <mxCell id="eeUuwRDZIGfGQ-kLII9t-40" value="&amp;lt;&amp;lt; include &amp;gt;&amp;gt;" style="endArrow=block;endSize=16;endFill=0;html=1;rounded=0;dashed=1;" parent="1" source="eeUuwRDZIGfGQ-kLII9t-7" target="eeUuwRDZIGfGQ-kLII9t-9" edge="1">
          <mxGeometry width="160" relative="1" as="geometry">
            <mxPoint x="535" y="997.29" as="sourcePoint" />
            <mxPoint x="405" y="867.29" as="targetPoint" />
          </mxGeometry>
        </mxCell>
        <mxCell id="eeUuwRDZIGfGQ-kLII9t-50" value="&amp;lt;&amp;lt; extend &amp;gt;&amp;gt;" style="endArrow=block;endSize=16;endFill=0;html=1;rounded=0;dashed=1;" parent="1" source="eeUuwRDZIGfGQ-kLII9t-11" target="eeUuwRDZIGfGQ-kLII9t-10" edge="1">
          <mxGeometry width="160" relative="1" as="geometry">
            <mxPoint x="281" y="493" as="sourcePoint" />
            <mxPoint x="400" y="458" as="targetPoint" />
          </mxGeometry>
        </mxCell>
        <mxCell id="eeUuwRDZIGfGQ-kLII9t-62" value="&amp;lt;&amp;lt; include &amp;gt;&amp;gt;" style="endArrow=block;endSize=16;endFill=0;html=1;rounded=0;dashed=1;" parent="1" source="eeUuwRDZIGfGQ-kLII9t-15" target="eeUuwRDZIGfGQ-kLII9t-10" edge="1">
          <mxGeometry width="160" relative="1" as="geometry">
            <mxPoint x="460" y="466.25" as="sourcePoint" />
            <mxPoint x="460" y="646.25" as="targetPoint" />
          </mxGeometry>
        </mxCell>
        <mxCell id="eeUuwRDZIGfGQ-kLII9t-67" value="&lt;div&gt;Xestionar&lt;/div&gt;&lt;div&gt;incidencias&lt;br&gt;&lt;/div&gt;" style="ellipse;whiteSpace=wrap;html=1;" parent="1" vertex="1">
          <mxGeometry x="600" y="636.25" width="140" height="70" as="geometry" />
        </mxCell>
        <mxCell id="eeUuwRDZIGfGQ-kLII9t-74" value="&amp;lt;&amp;lt; include&amp;gt;&amp;gt;" style="endArrow=block;endSize=16;endFill=0;html=1;rounded=0;dashed=1;" parent="1" source="eeUuwRDZIGfGQ-kLII9t-6" target="eeUuwRDZIGfGQ-kLII9t-5" edge="1">
          <mxGeometry width="160" relative="1" as="geometry">
            <mxPoint x="460" y="896.25" as="sourcePoint" />
            <mxPoint x="656" y="814.25" as="targetPoint" />
          </mxGeometry>
        </mxCell>
        <mxCell id="eeUuwRDZIGfGQ-kLII9t-75" value="&amp;lt;&amp;lt; extends &amp;gt;&amp;gt;" style="endArrow=block;endSize=16;endFill=0;html=1;rounded=0;dashed=1;" parent="1" source="eeUuwRDZIGfGQ-kLII9t-5" target="eeUuwRDZIGfGQ-kLII9t-7" edge="1">
          <mxGeometry width="160" relative="1" as="geometry">
            <mxPoint x="530" y="791.25" as="sourcePoint" />
            <mxPoint x="640" y="791.25" as="targetPoint" />
          </mxGeometry>
        </mxCell>
        <mxCell id="iLIdyShnenRzklDeNf6a-3" value="&amp;lt;&amp;lt; extend &amp;gt;&amp;gt;" style="endArrow=block;endSize=16;endFill=0;html=1;rounded=0;dashed=1;" parent="1" source="eeUuwRDZIGfGQ-kLII9t-4" target="eeUuwRDZIGfGQ-kLII9t-2" edge="1">
          <mxGeometry width="160" relative="1" as="geometry">
            <mxPoint x="400" y="465" as="sourcePoint" />
            <mxPoint x="400" y="645" as="targetPoint" />
          </mxGeometry>
        </mxCell>
      </root>
    </mxGraphModel>
  </diagram>
</mxfile>
